<svg xmlns="http://www.w3.org/2000/svg" viewBox="0 0 64 64">
  <rect width="64" height="64" rx="12" fill="#181a1f"/>
  <path d="M7 39h41l8 8H14c-4 0-7-3-7-7z" fill="#0f6b68"/>
  <path d="M12 33h31l5 6H13z" fill="#d8dde5"/>
  <path d="M25 20h15l9 13H22z" fill="#8f3f28"/>
  <path d="M31 14h16l7 6H35z" fill="#f5d36c"/>
  <path d="M5 37l12-5h7l-7 8H6z" fill="#f5d36c"/>
  <path d="M15 47h39a7 7 0 0 1-7 6H20a7 7 0 0 1-7-6z" fill="#101317"/>
  <circle cx="22" cy="47" r="3" fill="#f7f5ef"/>
  <circle cx="33" cy="47" r="3" fill="#f7f5ef"/>
  <circle cx="44" cy="47" r="3" fill="#f7f5ef"/>
  <path d="M26 35v-8h3l3 4 3-4h3v8h-3v-4l-3 4-3-4v4zm14 0v-8h3v3l4-3h4l-5 4 5 4h-4l-4-3v3z" fill="#181a1f"/>
</svg>
